<svg width="92" height="24" viewBox="0 0 92 24" fill="none" xmlns="http://www.w3.org/2000/svg">
<path d="M14.098 9.54688H10.9872C10.9304 9.14441 10.8144 8.78693 10.6392 8.47443C10.464 8.1572 10.2391 7.88731 9.96449 7.66477C9.68987 7.44223 9.37263 7.27178 9.01278 7.15341C8.65767 7.03504 8.27178 6.97585 7.85511 6.97585C7.10227 6.97585 6.4465 7.16288 5.88778 7.53693C5.32907 7.90625 4.89583 8.44602 4.58807 9.15625C4.2803 9.86174 4.12642 10.7187 4.12642 11.7273C4.12642 12.7642 4.2803 13.6354 4.58807 14.3409C4.90057 15.0464 5.33617 15.5791 5.89489 15.9389C6.4536 16.2988 7.09991 16.4787 7.83381 16.4787C8.24574 16.4787 8.62689 16.4242 8.97727 16.3153C9.33239 16.2064 9.64725 16.0478 9.92188 15.8395C10.1965 15.6264 10.4238 15.3684 10.6037 15.0653C10.7884 14.7623 10.9162 14.4167 10.9872 14.0284L14.098 14.0426C14.0175 14.7102 13.8163 15.3542 13.4943 15.9744C13.1771 16.59 12.7486 17.1416 12.2088 17.6293C11.6738 18.1122 11.0346 18.4957 10.2912 18.7798C9.55256 19.0592 8.71686 19.1989 7.78409 19.1989C6.48674 19.1989 5.3267 18.9053 4.30398 18.3182C3.28598 17.7311 2.48106 16.8812 1.8892 15.7685C1.30208 14.6558 1.00852 13.3087 1.00852 11.7273C1.00852 10.1411 1.30682 8.79167 1.90341 7.67898C2.5 6.56629 3.30966 5.71875 4.33239 5.13636C5.35511 4.54924 6.50568 4.25568 7.78409 4.25568C8.62689 4.25568 9.40814 4.37405 10.1278 4.6108C10.8523 4.84754 11.4938 5.19318 12.0526 5.64773C12.6113 6.09754 13.0658 6.64915 13.4162 7.30256C13.7713 7.95597 13.9986 8.70407 14.098 9.54688ZM30.6697 11.7273C30.6697 13.3134 30.3691 14.6629 29.7678 15.7756C29.1712 16.8883 28.3568 17.7382 27.3246 18.3253C26.2971 18.9077 25.1418 19.1989 23.8587 19.1989C22.5661 19.1989 21.406 18.9053 20.3786 18.3182C19.3511 17.7311 18.5391 16.8812 17.9425 15.7685C17.3459 14.6558 17.0476 13.3087 17.0476 11.7273C17.0476 10.1411 17.3459 8.79167 17.9425 7.67898C18.5391 6.56629 19.3511 5.71875 20.3786 5.13636C21.406 4.54924 22.5661 4.25568 23.8587 4.25568C25.1418 4.25568 26.2971 4.54924 27.3246 5.13636C28.3568 5.71875 29.1712 6.56629 29.7678 7.67898C30.3691 8.79167 30.6697 10.1411 30.6697 11.7273ZM27.5518 11.7273C27.5518 10.6998 27.398 9.83333 27.0902 9.12784C26.7872 8.42235 26.3587 7.88731 25.8047 7.52273C25.2507 7.15814 24.602 6.97585 23.8587 6.97585C23.1153 6.97585 22.4666 7.15814 21.9126 7.52273C21.3587 7.88731 20.9278 8.42235 20.62 9.12784C20.317 9.83333 20.1655 10.6998 20.1655 11.7273C20.1655 12.7547 20.317 13.6212 20.62 14.3267C20.9278 15.0322 21.3587 15.5672 21.9126 15.9318C22.4666 16.2964 23.1153 16.4787 23.8587 16.4787C24.602 16.4787 25.2507 16.2964 25.8047 15.9318C26.3587 15.5672 26.7872 15.0322 27.0902 14.3267C27.398 13.6212 27.5518 12.7547 27.5518 11.7273ZM33.9478 4.45455H37.7404L41.7461 14.2273H41.9165L45.9222 4.45455H49.7148V19H46.7319V9.53267H46.6112L42.8469 18.929H40.8157L37.0515 9.49716H36.9308V19H33.9478V4.45455ZM53.2486 19V4.45455H58.9872C60.0904 4.45455 61.0303 4.66525 61.8068 5.08665C62.5833 5.50331 63.1752 6.08333 63.5824 6.8267C63.9943 7.56534 64.2003 8.41761 64.2003 9.38352C64.2003 10.3494 63.992 11.2017 63.5753 11.9403C63.1586 12.679 62.5549 13.2543 61.7642 13.6662C60.9782 14.0781 60.0265 14.2841 58.9091 14.2841H55.2514V11.8196H58.4119C59.0038 11.8196 59.4915 11.7178 59.875 11.5142C60.2633 11.3059 60.5521 11.0194 60.7415 10.6548C60.9356 10.2855 61.0327 9.86174 61.0327 9.38352C61.0327 8.90057 60.9356 8.47917 60.7415 8.11932C60.5521 7.75473 60.2633 7.47301 59.875 7.27415C59.4867 7.07055 58.9943 6.96875 58.3977 6.96875H56.3239V19H53.2486ZM68.0252 19H64.7298L69.7511 4.45455H73.7141L78.7283 19H75.4329L71.7894 7.77841H71.6758L68.0252 19ZM67.8192 13.2827H75.6033V15.6832H67.8192V13.2827ZM81.479 19V4.45455H84.5543V16.4645H90.7901V19H81.479Z" fill="#E7E7E7"/>
<path d="M30.6307 11.7273C30.6307 13.3134 30.33 14.6629 29.7287 15.7756C29.1321 16.8883 28.3177 17.7382 27.2855 18.3253C26.258 18.9077 25.1027 19.1989 23.8196 19.1989C22.527 19.1989 21.367 18.9053 20.3395 18.3182C19.312 17.7311 18.5 16.8812 17.9034 15.7685C17.3068 14.6558 17.0085 13.3087 17.0085 11.7273C17.0085 10.1411 17.3068 8.79167 17.9034 7.67898C18.5 6.56629 19.312 5.71875 20.3395 5.13636C21.367 4.54924 22.527 4.25568 23.8196 4.25568C25.1027 4.25568 26.258 4.54924 27.2855 5.13636C28.3177 5.71875 29.1321 6.56629 29.7287 7.67898C30.33 8.79167 30.6307 10.1411 30.6307 11.7273ZM27.5128 11.7273C27.5128 10.6998 27.3589 9.83333 27.0511 9.12784C26.7481 8.42235 26.3196 7.88731 25.7656 7.52273C25.2116 7.15814 24.563 6.97585 23.8196 6.97585C23.0762 6.97585 22.4276 7.15814 21.8736 7.52273C21.3196 7.88731 20.8887 8.42235 20.581 9.12784C20.2779 9.83333 20.1264 10.6998 20.1264 11.7273C20.1264 12.7547 20.2779 13.6212 20.581 14.3267C20.8887 15.0322 21.3196 15.5672 21.8736 15.9318C22.4276 16.2964 23.0762 16.4787 23.8196 16.4787C24.563 16.4787 25.2116 16.2964 25.7656 15.9318C26.3196 15.5672 26.7481 15.0322 27.0511 14.3267C27.3589 13.6212 27.5128 12.7547 27.5128 11.7273Z" fill="#E7E7E7"/>
<rect x="20" y="6" width="8" height="12" fill="#E7E7E7"/>
</svg>
