<svg width="94" height="24" viewBox="0 0 94 24" fill="none" xmlns="http://www.w3.org/2000/svg">
<path d="M14.517 9.90909H10.5114C10.483 9.57765 10.4072 9.27699 10.2841 9.0071C10.1657 8.73722 10 8.50521 9.78693 8.31108C9.5786 8.11222 9.32528 7.9607 9.02699 7.85653C8.72869 7.74763 8.39015 7.69318 8.01136 7.69318C7.34848 7.69318 6.78741 7.85417 6.32812 8.17614C5.87358 8.49811 5.52794 8.95975 5.29119 9.56108C5.05919 10.1624 4.94318 10.8845 4.94318 11.7273C4.94318 12.6174 5.06155 13.3632 5.2983 13.9645C5.53977 14.5611 5.88778 15.0109 6.34233 15.3139C6.79688 15.6122 7.34375 15.7614 7.98295 15.7614C8.34754 15.7614 8.67424 15.7164 8.96307 15.6264C9.25189 15.5317 9.50284 15.3968 9.71591 15.2216C9.92898 15.0464 10.1018 14.8357 10.2344 14.5895C10.3717 14.3385 10.464 14.0568 10.5114 13.7443L14.517 13.7727C14.4697 14.3883 14.2969 15.0156 13.9986 15.6548C13.7003 16.2893 13.2765 16.8764 12.7273 17.4162C12.1828 17.9512 11.508 18.3821 10.7031 18.7088C9.8982 19.0355 8.96307 19.1989 7.89773 19.1989C6.5625 19.1989 5.36458 18.9124 4.30398 18.3395C3.24811 17.7666 2.41241 16.9238 1.79688 15.8111C1.18608 14.6984 0.880682 13.3371 0.880682 11.7273C0.880682 10.108 1.19318 8.74432 1.81818 7.63636C2.44318 6.52367 3.28598 5.68324 4.34659 5.11506C5.4072 4.54214 6.59091 4.25568 7.89773 4.25568C8.81629 4.25568 9.66146 4.38115 10.4332 4.6321C11.205 4.88305 11.8821 5.25 12.4645 5.73295C13.0469 6.21117 13.5156 6.80066 13.8707 7.50142C14.2259 8.20218 14.4413 9.00473 14.517 9.90909ZM31.3995 11.7273C31.3995 13.3466 31.0846 14.7126 30.4549 15.8253C29.8252 16.9332 28.9753 17.7737 27.9052 18.3466C26.8351 18.9148 25.6419 19.1989 24.3256 19.1989C22.9999 19.1989 21.802 18.9124 20.7319 18.3395C19.6665 17.7618 18.819 16.919 18.1893 15.8111C17.5643 14.6984 17.2518 13.3371 17.2518 11.7273C17.2518 10.108 17.5643 8.74432 18.1893 7.63636C18.819 6.52367 19.6665 5.68324 20.7319 5.11506C21.802 4.54214 22.9999 4.25568 24.3256 4.25568C25.6419 4.25568 26.8351 4.54214 27.9052 5.11506C28.9753 5.68324 29.8252 6.52367 30.4549 7.63636C31.0846 8.74432 31.3995 10.108 31.3995 11.7273ZM27.337 11.7273C27.337 10.8561 27.221 10.1222 26.989 9.52557C26.7617 8.92424 26.4232 8.4697 25.9734 8.16193C25.5283 7.84943 24.979 7.69318 24.3256 7.69318C23.6722 7.69318 23.1206 7.84943 22.6708 8.16193C22.2257 8.4697 21.8872 8.92424 21.6552 9.52557C21.4279 10.1222 21.3143 10.8561 21.3143 11.7273C21.3143 12.5985 21.4279 13.3348 21.6552 13.9361C21.8872 14.5327 22.2257 14.9872 22.6708 15.2997C23.1206 15.6075 23.6722 15.7614 24.3256 15.7614C24.979 15.7614 25.5283 15.6075 25.9734 15.2997C26.4232 14.9872 26.7617 14.5327 26.989 13.9361C27.221 13.3348 27.337 12.5985 27.337 11.7273ZM34.2266 4.45455H39.1413L42.522 12.6932H42.6925L46.0732 4.45455H50.9879V19H47.1243V10.5909H47.0107L43.772 18.8864H41.4425L38.2038 10.5341H38.0902V19H34.2266V4.45455ZM53.8594 19V4.45455H60.1378C61.2173 4.45455 62.1619 4.66761 62.9716 5.09375C63.7813 5.51989 64.411 6.11884 64.8608 6.89062C65.3106 7.66241 65.5355 8.56439 65.5355 9.59659C65.5355 10.6383 65.3035 11.5402 64.8395 12.3026C64.3802 13.0649 63.7339 13.652 62.9006 14.0639C62.072 14.4759 61.1037 14.6818 59.9957 14.6818H56.2457V11.6136H59.2003C59.6643 11.6136 60.0597 11.5331 60.3864 11.3722C60.7178 11.2064 60.9711 10.9721 61.1463 10.669C61.3262 10.366 61.4162 10.0085 61.4162 9.59659C61.4162 9.17992 61.3262 8.82481 61.1463 8.53125C60.9711 8.23295 60.7178 8.00568 60.3864 7.84943C60.0597 7.68845 59.6643 7.60795 59.2003 7.60795H57.8082V19H53.8594ZM69.9464 19H65.685L70.4862 4.45455H75.8839L80.685 19H76.4237L73.2418 8.46023H73.1282L69.9464 19ZM69.1509 13.2614H77.1623V16.2159H69.1509V13.2614ZM83.0859 19V4.45455H87.0348V15.8182H92.9155V19H83.0859Z" fill="#E7E7E7"/>
<path d="M30.6307 11.7273C30.6307 13.3134 30.33 14.6629 29.7287 15.7756C29.1321 16.8883 28.3177 17.7382 27.2855 18.3253C26.258 18.9077 25.1027 19.1989 23.8196 19.1989C22.527 19.1989 21.367 18.9053 20.3395 18.3182C19.312 17.7311 18.5 16.8812 17.9034 15.7685C17.3068 14.6558 17.0085 13.3087 17.0085 11.7273C17.0085 10.1411 17.3068 8.79167 17.9034 7.67898C18.5 6.56629 19.312 5.71875 20.3395 5.13636C21.367 4.54924 22.527 4.25568 23.8196 4.25568C25.1027 4.25568 26.258 4.54924 27.2855 5.13636C28.3177 5.71875 29.1321 6.56629 29.7287 7.67898C30.33 8.79167 30.6307 10.1411 30.6307 11.7273ZM27.5128 11.7273C27.5128 10.6998 27.3589 9.83333 27.0511 9.12784C26.7481 8.42235 26.3196 7.88731 25.7656 7.52273C25.2116 7.15814 24.563 6.97585 23.8196 6.97585C23.0762 6.97585 22.4276 7.15814 21.8736 7.52273C21.3196 7.88731 20.8887 8.42235 20.581 9.12784C20.2779 9.83333 20.1264 10.6998 20.1264 11.7273C20.1264 12.7547 20.2779 13.6212 20.581 14.3267C20.8887 15.0322 21.3196 15.5672 21.8736 15.9318C22.4276 16.2964 23.0762 16.4787 23.8196 16.4787C24.563 16.4787 25.2116 16.2964 25.7656 15.9318C26.3196 15.5672 26.7481 15.0322 27.0511 14.3267C27.3589 13.6212 27.5128 12.7547 27.5128 11.7273Z" fill="#E7E7E7"/>
<rect x="20" y="6" width="8" height="12" fill="#E7E7E7"/>
</svg>
