<svg width="65" height="19" viewBox="0 0 65 19" fill="none" xmlns="http://www.w3.org/2000/svg">
<rect width="64.5" height="19" rx="1" fill="#F3F3F4"/>
<path d="M3.90563 11.4C3.90563 12.456 4.12963 15.288 7.92163 15.288C11.3296 15.288 11.8576 13 11.9216 11.784C11.9376 11.544 11.7936 11.368 11.5696 11.32L9.76163 10.92C9.44163 10.84 9.18563 11.048 9.13763 11.384C9.04163 12.12 8.80163 12.536 7.92163 12.536C6.73763 12.536 6.65763 11.784 6.65763 10.552V8.248C6.65763 7.016 6.73763 6.264 7.92163 6.264C8.78563 6.264 9.07363 6.68 9.15363 7.384C9.20163 7.72 9.45763 7.944 9.79363 7.88L11.5696 7.48C11.7936 7.432 11.9376 7.256 11.9216 7.032C11.8576 5.8 11.3296 3.512 7.92163 3.512C4.12963 3.512 3.90563 6.344 3.90563 7.4V11.4ZM20.8908 7.4C20.8908 6.344 20.6667 3.512 16.8748 3.512C13.0828 3.512 12.8588 6.344 12.8588 7.4V11.4C12.8588 12.456 13.0828 15.288 16.8748 15.288C20.6667 15.288 20.8908 12.456 20.8908 11.4V7.4ZM18.1388 10.552C18.1388 11.784 18.0588 12.536 16.8748 12.536C15.6908 12.536 15.6108 11.784 15.6108 10.552V8.248C15.6108 7.016 15.6908 6.264 16.8748 6.264C18.0588 6.264 18.1388 7.016 18.1388 8.248V10.552ZM26.1233 3.8C26.4113 3.8 26.5713 3.96 26.6353 4.232L27.7713 8.888C27.8033 9.048 27.9313 9.048 27.9633 8.888L29.0993 4.232C29.1633 3.96 29.3233 3.8 29.6112 3.8H32.9233C33.2433 3.8 33.4033 3.96 33.4033 4.28V14.52C33.4033 14.824 33.2433 15 32.9233 15H31.1313C30.8273 15 30.6513 14.824 30.6513 14.52V8.216C30.6513 8.104 30.5073 8.088 30.4753 8.2L28.9233 14.584C28.8593 14.856 28.6833 15 28.3953 15H27.3393C27.0513 15 26.8753 14.856 26.8113 14.584L25.2593 8.2C25.2273 8.088 25.0833 8.104 25.0833 8.216V14.52C25.0833 14.824 24.9233 15 24.6033 15H22.8113C22.4913 15 22.3313 14.824 22.3313 14.52V4.28C22.3313 3.96 22.4913 3.8 22.8113 3.8H26.1233ZM35.4831 3.8C35.1631 3.816 35.0031 3.976 35.0031 4.296V14.52C35.0031 14.824 35.1791 15 35.4831 15H37.2751C37.5951 15 37.7551 14.84 37.7551 14.52V11.96C37.7551 11.64 37.9311 11.48 38.2351 11.48H39.0031C41.8511 11.48 43.0031 10.264 43.0031 7.64C43.0031 5.016 41.8511 3.8 39.0031 3.8H35.4831ZM38.2351 8.728C37.9311 8.728 37.7551 8.552 37.7551 8.248V7.032C37.7551 6.712 37.9311 6.552 38.2351 6.552H39.0991C39.8671 6.552 40.2511 6.648 40.2511 7.64C40.2511 8.632 39.8671 8.728 39.0991 8.728H38.2351ZM51.7475 14.456C51.7475 14.808 51.5875 15 51.2675 15H49.4755C49.1715 15 48.9955 14.84 48.9955 14.52V13.128C48.9955 12.808 48.8355 12.648 48.5155 12.648H47.1395C46.8355 12.648 46.6595 12.808 46.6595 13.128V14.52C46.6595 14.84 46.4995 15 46.1795 15H44.3875C44.0835 15 43.9075 14.808 43.9075 14.456V7.672C43.9075 5.656 44.2275 3.512 47.8275 3.512C51.4275 3.512 51.7475 5.656 51.7475 7.672V14.456ZM48.9955 7.672C48.9955 6.904 48.8835 6.52 47.8275 6.52C46.7715 6.52 46.6595 6.904 46.6595 7.672V9.416C46.6595 9.72 46.8355 9.896 47.1395 9.896H48.5155C48.8355 9.88 48.9955 9.72 48.9955 9.4V7.672ZM55.5408 3.8C55.8608 3.8 56.0208 3.96 56.0208 4.28V11.768C56.0208 12.072 56.1968 12.248 56.5008 12.248H60.0688C60.3888 12.248 60.5487 12.408 60.5487 12.728V14.52C60.5487 14.84 60.3888 15 60.0688 15H53.7488C53.4448 15 53.2688 14.824 53.2688 14.52V4.28C53.2688 3.96 53.4448 3.8 53.7488 3.8H55.5408Z" fill="#18181B"/>
</svg>
